<svg width="24" height="24" viewBox="0 0 24 24" fill="none" xmlns="http://www.w3.org/2000/svg">
<g id="x34 4 18Plus movie">
<g id="Group">
<path id="Vector" d="M7.71358 15.9736V9.63881H6.24915V8.01544H9.73435V15.9736H7.71358Z" fill="#A0A0A0"/>
</g>
<g id="Group_2">
<path id="Vector_2" d="M17.3289 10.0702C17.3289 10.7627 16.9543 11.3758 16.3299 11.7164C17.204 12.0796 17.7489 12.8403 17.7489 13.7257C17.7489 15.1561 16.4774 16.0644 14.4908 16.0644C12.5041 16.0644 11.2326 15.1675 11.2326 13.7599C11.2326 12.8516 11.8229 12.0796 12.7425 11.7164C12.0727 11.3417 11.6413 10.706 11.6413 10.0136C11.6413 8.74197 12.7539 7.93604 14.4794 7.93604C16.2277 7.93604 17.3289 8.76475 17.3289 10.0702ZM13.1398 13.5555C13.1398 14.2254 13.6166 14.6 14.4908 14.6C15.3649 14.6 15.853 14.2368 15.853 13.5555C15.853 12.8972 15.3649 12.5224 14.4908 12.5224C13.6166 12.5224 13.1398 12.8971 13.1398 13.5555ZM13.3442 10.1838C13.3442 10.7515 13.7529 11.0692 14.4908 11.0692C15.2287 11.0692 15.6373 10.7515 15.6373 10.1838C15.6373 9.5936 15.2287 9.26431 14.4908 9.26431C13.7528 9.26431 13.3442 9.5936 13.3442 10.1838Z" fill="#A0A0A0"/>
</g>
<g id="Group_3">
<path id="Vector_3" d="M21.1124 8.91384C21.4483 9.90539 21.6188 10.9425 21.6188 12.0002C21.6188 17.304 17.3038 21.6189 12 21.6189C6.69615 21.6189 2.3811 17.304 2.3811 12.0002C2.3811 6.69633 6.69607 2.3815 11.9999 2.3815C13.0578 2.3815 14.0949 2.55178 15.0863 2.88788V0.747345C14.0849 0.472835 13.0506 0.333557 12 0.333557C5.56703 0.333557 0.333374 5.56721 0.333374 12.0002C0.333374 18.4332 5.56703 23.6669 12 23.6669C18.4329 23.6669 23.6665 18.4332 23.6665 12.0002C23.6665 10.9496 23.5273 9.91532 23.2528 8.91384H21.1124Z" fill="#A0A0A0"/>
</g>
<g id="Group_4">
<path id="Vector_4" d="M20.5293 3.46328V1.22626H18.9207V3.46328H16.6971V5.07175H18.9207V7.30871H20.5293V5.07175H22.7662V3.46328H20.5293Z" fill="#A0A0A0"/>
</g>
</g>
</svg>
