<svg width="20" height="20" viewBox="0 0 20 20" fill="none" xmlns="http://www.w3.org/2000/svg">
<g id="Icons/Menu">
<path id="icon" fill-rule="evenodd" clip-rule="evenodd" d="M17.5 5.83335C17.9603 5.83335 18.3334 5.46026 18.3334 5.00002C18.3334 4.53978 17.9603 4.16669 17.5 4.16669H2.50002C2.03978 4.16669 1.66669 4.53978 1.66669 5.00002C1.66669 5.46026 2.03978 5.83335 2.50002 5.83335H17.5ZM17.5 9.16669C17.9603 9.16669 18.3334 9.53978 18.3334 10C18.3334 10.4603 17.9603 10.8334 17.5 10.8334H2.50002C2.03978 10.8334 1.66669 10.4603 1.66669 10C1.66669 9.53978 2.03978 9.16669 2.50002 9.16669H17.5ZM17.5 14.1667C17.9603 14.1667 18.3334 14.5398 18.3334 15C18.3334 15.4603 17.9603 15.8334 17.5 15.8334H2.50002C2.03978 15.8334 1.66669 15.4603 1.66669 15C1.66669 14.5398 2.03978 14.1667 2.50002 14.1667H17.5Z" fill="#EF2127"/>
</g>
</svg>
