<svg width="20" height="20" viewBox="0 0 20 20" fill="none" xmlns="http://www.w3.org/2000/svg">
<g id="Icons / Search">
<path id="Icon" fill-rule="evenodd" clip-rule="evenodd" d="M9.16666 1.66669C13.3088 1.66669 16.6667 5.02455 16.6667 9.16669C16.6667 10.9373 16.0531 12.5647 15.0269 13.8477L18.0892 16.9108C18.4147 17.2362 18.4147 17.7638 18.0892 18.0893C17.7888 18.3897 17.3161 18.4128 16.9892 18.1586L16.9107 18.0893L13.8476 15.0269C12.5646 16.0531 10.9373 16.6667 9.16666 16.6667C5.02452 16.6667 1.66666 13.3088 1.66666 9.16669C1.66666 5.02455 5.02452 1.66669 9.16666 1.66669ZM9.16666 3.33335C5.945 3.33335 3.33332 5.94503 3.33332 9.16669C3.33332 12.3883 5.945 15 9.16666 15C12.3883 15 15 12.3883 15 9.16669C15 5.94503 12.3883 3.33335 9.16666 3.33335Z" fill="#909090"/>
</g>
</svg>
