<svg width="20" height="20" viewBox="0 0 20 20" fill="none" xmlns="http://www.w3.org/2000/svg">
<g id="Icons / ShoppingCart">
<path id="Icon" fill-rule="evenodd" clip-rule="evenodd" d="M7.08332 15.8334C7.77368 15.8334 8.33332 16.393 8.33332 17.0834C8.33332 17.7737 7.77368 18.3334 7.08332 18.3334C6.39297 18.3334 5.83332 17.7737 5.83332 17.0834C5.83332 16.393 6.39297 15.8334 7.08332 15.8334ZM14.5833 15.8334C15.2737 15.8334 15.8333 16.393 15.8333 17.0834C15.8333 17.7737 15.2737 18.3334 14.5833 18.3334C13.893 18.3334 13.3333 17.7737 13.3333 17.0834C13.3333 16.393 13.893 15.8334 14.5833 15.8334ZM2.49999 1.66669H4.16666C4.54633 1.66669 4.87358 1.92239 4.97087 2.28147L4.9903 2.37331L5.39441 5.00002H17.5C17.9998 5.00002 18.3791 5.43392 18.3293 5.91698L18.3135 6.01413L16.9368 12.209C16.6937 13.3031 15.7549 14.0953 14.6483 14.1621L14.4964 14.1667H7.26319C6.07862 14.1667 5.06413 13.337 4.81887 12.1916L4.79226 12.0468L3.45172 3.33335H2.49999C2.03975 3.33335 1.66666 2.96026 1.66666 2.50002C1.66666 2.07266 1.98836 1.72043 2.40281 1.67229L2.49999 1.66669H4.16666H2.49999ZM16.4611 6.66669H5.65082L6.43954 11.7934C6.49728 12.1687 6.79976 12.4532 7.16947 12.4948L7.26319 12.5H14.4964C14.8544 12.5 15.1684 12.2721 15.2835 11.9404L15.3099 11.8475L16.4611 6.66669Z" fill="#EF2127"/>
</g>
</svg>
