<svg width="20" height="20" viewBox="0 0 20 20" fill="none" xmlns="http://www.w3.org/2000/svg">
<g id="Icons / User">
<path id="Icon" fill-rule="evenodd" clip-rule="evenodd" d="M5.83332 13.3334H14.1667C16.4678 13.3334 18.3333 15.1988 18.3333 17.5C18.3333 17.9603 17.9602 18.3334 17.5 18.3334C17.0726 18.3334 16.7204 18.0117 16.6723 17.5972L16.6624 17.3531C16.5892 16.0894 15.5773 15.0775 14.3136 15.0043L14.1667 15H5.83332C4.45261 15 3.33332 16.1193 3.33332 17.5C3.33332 17.9603 2.96023 18.3334 2.49999 18.3334C2.03975 18.3334 1.66666 17.9603 1.66666 17.5C1.66666 15.2594 3.43525 13.4318 5.65258 13.3372L5.83332 13.3334H14.1667H5.83332ZM9.99999 1.66669C12.7614 1.66669 15 3.90526 15 6.66669C15 9.42811 12.7614 11.6667 9.99999 11.6667C7.23857 11.6667 4.99999 9.42811 4.99999 6.66669C4.99999 3.90526 7.23857 1.66669 9.99999 1.66669ZM9.99999 3.33335C8.15904 3.33335 6.66666 4.82574 6.66666 6.66669C6.66666 8.50764 8.15904 10 9.99999 10C11.8409 10 13.3333 8.50764 13.3333 6.66669C13.3333 4.82574 11.8409 3.33335 9.99999 3.33335Z" fill="#EF2127"/>
</g>
</svg>
